<?xml version="1.0" encoding="utf-8"?>
<!-- Generator: Adobe Illustrator 21.1.0, SVG Export Plug-In . SVG Version: 6.00 Build 0)  -->
<svg version="1.1" id="Layer_1" xmlns="http://www.w3.org/2000/svg" xmlns:xlink="http://www.w3.org/1999/xlink" x="0px" y="0px"
	 viewBox="0 0 100 100" style="enable-background:new 0 0 100 100;" xml:space="preserve">
<path d="M75.9,0c-6.1,0-11.1,5-11.1,11.2v13.7C63,23.7,60.9,23,58.6,23c-3.5,0-6.6,1.6-8.6,4.1c-2-2.5-5.1-4.1-8.6-4.1
	c-2.3,0-4.4,0.7-6.1,1.9V11.2C35.2,5,30.3,0,24.1,0C18,0,13,5,13,11.2V50v8.8v18.4c0,7,2.6,12.9,7.4,17c4.4,3.7,10.4,5.8,17.1,5.8
	h9.8h15.3C77.2,100,87,90.8,87,77.2V50V11.2C87,5,82,0,75.9,0z M69.8,34.2v-23c0-3.4,2.7-6.2,6.1-6.2S82,7.8,82,11.2v36.3H69.8V34.2
	z M58.6,28c3.4,0,6.1,2.8,6.1,6.2v13.3H52.5V34.2C52.5,30.8,55.2,28,58.6,28z M41.4,28c3.4,0,6.1,2.8,6.1,6.2v13.3H35.2V34.2
	C35.2,30.8,38,28,41.4,28z M18,11.2C18,7.8,20.7,5,24.1,5c3.4,0,6.1,2.8,6.1,6.2v23v13.3H18V11.2z M37.5,95C23.1,95,18,85.4,18,77.2
	v-10c0,0,0,0,0,0c0.3,0.2,0.7,0.5,1.1,0.7c0.1,0.1,0.2,0.1,0.3,0.2c0.3,0.2,0.6,0.3,0.9,0.5c0.1,0.1,0.2,0.1,0.4,0.2
	c0.4,0.2,0.9,0.4,1.3,0.6c0,0,0,0,0.1,0c0.5,0.2,1,0.4,1.5,0.6c0.1,0.1,0.3,0.1,0.4,0.1c0.4,0.1,0.8,0.3,1.2,0.4
	c0.2,0.1,0.3,0.1,0.5,0.2c0.5,0.2,1,0.3,1.5,0.5c0.1,0,0.2,0.1,0.3,0.1c0.6,0.2,1.2,0.3,1.9,0.5c0.1,0,0.3,0.1,0.4,0.1
	c0.5,0.1,1,0.2,1.6,0.3c0.2,0,0.4,0.1,0.6,0.1c0.6,0.1,1.1,0.2,1.7,0.3c0.2,0,0.3,0.1,0.5,0.1c0.7,0.1,1.5,0.2,2.3,0.4
	c0.1,0,0.3,0,0.4,0.1c0.6,0.1,1.3,0.2,1.9,0.3c0.2,0,0.5,0.1,0.7,0.1c0.6,0.1,1.2,0.1,1.9,0.2c0.2,0,0.4,0,0.7,0.1
	c0.8,0.1,1.7,0.2,2.6,0.2c0.1,0,0.2,0,0.4,0c0.8,0.1,1.6,0.1,2.4,0.2c0.3,0,0.6,0,0.9,0.1c0.7,0,1.4,0.1,2.1,0.1c0.3,0,0.6,0,0.9,0
	c1,0,1.9,0.1,2.9,0.1c-0.5,0.4-0.9,0.9-1.3,1.3c-0.1,0.1-0.2,0.2-0.4,0.4c-0.3,0.4-0.7,0.7-1,1.1c-0.1,0.1-0.2,0.2-0.2,0.3
	c-0.4,0.4-0.7,0.9-1.1,1.3c-0.1,0.1-0.1,0.2-0.2,0.3c-0.3,0.4-0.5,0.7-0.7,1.1c-0.1,0.1-0.2,0.2-0.2,0.4c-0.3,0.4-0.6,0.9-0.8,1.3
	c0,0,0,0,0,0.1c-0.2,0.4-0.5,0.8-0.7,1.2c-0.1,0.1-0.1,0.2-0.2,0.4c-0.2,0.3-0.3,0.7-0.5,1c0,0.1-0.1,0.2-0.1,0.2
	c-0.2,0.4-0.3,0.8-0.5,1.2c0,0.1-0.1,0.2-0.1,0.3c-0.1,0.3-0.2,0.6-0.3,0.9c0,0.1-0.1,0.2-0.1,0.3c-0.1,0.4-0.2,0.7-0.3,1.1
	c0,0.1,0,0.1,0,0.2c-0.1,0.3-0.2,0.6-0.2,0.9c0,0.1,0,0.2-0.1,0.3c-0.1,0.3-0.1,0.5-0.1,0.8c0,0.1,0,0.1,0,0.2
	c-0.1,0.3-0.1,0.6-0.1,0.9c0,0.1,0,0.2,0,0.3c0,0.2,0,0.4-0.1,0.6c0,0.1,0,0.2,0,0.3c0,0.3,0,0.5,0,0.8c0,0.1,0,0.1,0,0.2
	c0,0.2,0,0.4,0,0.5c0,0,0,0.1,0,0.1H37.5z M82,77.2C82,90.3,71.5,95,62.6,95H49.5c-0.1-3.4,1-11.1,10.2-18.6
	c0.1-0.1,0.2-0.1,0.3-0.2c0.3-0.2,0.6-0.5,0.9-0.7c0.1-0.1,0.2-0.2,0.3-0.2c0.4-0.3,0.8-0.6,1.3-0.9c0.9-0.6,1.3-1.8,1-2.8
	c-0.3-1-1.3-1.8-2.4-1.8c-31.8,0-43.1-5.7-43.1-11v-6.3h14.8H50h17.2H82V77.2z"/>
</svg>
